<?xml version="1.0" encoding="UTF-8"?>
<svg id="Layer_1" xmlns="http://www.w3.org/2000/svg" viewBox="0 0 331.39 127.81">
  <defs>
    <style>
      .cls-1 {
        isolation: isolate;
      }
    </style>
  </defs>
  <g class="cls-1">
    <g>
      <g>
        <path d="M143.63,96.78c2.96,0,5.36,2.41,5.36,5.38s-2.41,5.38-5.36,5.38-5.36-2.41-5.36-5.38,2.41-5.38,5.36-5.38M143.63,95.21c-3.83,0-6.94,3.11-6.94,6.95s3.11,6.95,6.94,6.95,6.94-3.11,6.94-6.95-3.11-6.95-6.94-6.95h0Z"/>
        <g>
          <path d="M94.92,95.79c0-.36.24-.6.6-.6h1.79c.36,0,.69.22.83.56l5.39,11.87h.12v-11.83c0-.36.24-.6.6-.6h.5c.36,0,.6.24.6.6v12.72c0,.36-.24.6-.6.6h-1.79c-.36,0-.69-.22-.81-.56l-5.41-11.87h-.12v11.83c0,.36-.24.6-.6.6h-.5c-.36,0-.6-.24-.6-.6v-12.72Z"/>
          <path d="M115.81,95.79c0-.36.24-.6.6-.6h2.76c4.36,0,7.06,2.54,7.06,6.96s-2.77,6.96-7.06,6.96h-2.76c-.36,0-.6-.24-.6-.6v-12.72ZM117.49,96.69v10.93h1.45c3.69,0,5.59-1.73,5.59-5.47s-1.96-5.47-5.59-5.47h-1.45Z"/>
          <path d="M181.79,95.79c0-.36.24-.6.6-.6h9.22c.36,0,.6.24.6.6v.5c0,.36-.24.6-.6.6h-8.13v4.37h6.41c.36,0,.6.24.6.6v.3c0,.36-.24.6-.6.6h-6.41v4.67h8.13c.36,0,.6.24.6.6v.5c0,.36-.24.6-.6.6h-9.22c-.36,0-.6-.24-.6-.6v-12.72Z"/>
          <path d="M223.42,95.79c0-.36.24-.6.6-.6h.5c.36,0,.6.24.6.6v12.72c0,.36-.24.6-.6.6h-.5c-.36,0-.6-.24-.6-.6v-12.72Z"/>
          <path d="M82.83,95.79c0-.36.24-.6.6-.6h.5c.36,0,.6.24.6.6v12.72c0,.36-.24.6-.6.6h-.5c-.36,0-.6-.24-.6-.6v-12.72Z"/>
          <path d="M239.75,95.75c.1-.34.42-.56.77-.56h1.69c.36,0,.67.22.77.56l4.21,12.78c.1.36-.06.58-.42.58h-.79c-.24,0-.44-.16-.52-.38l-.85-2.6h-6.49l-.85,2.6c-.06.22-.28.38-.52.38h-.79c-.36,0-.52-.22-.42-.58l4.21-12.78ZM244.11,104.64l-2.6-7.95h-.3l-2.6,7.95h5.49Z"/>
          <path d="M160.98,95.79c0-.36.24-.6.6-.6h1.79c.36,0,.69.22.83.56l5.39,11.87h.12v-11.83c0-.36.24-.6.6-.6h.5c.36,0,.6.24.6.6v12.72c0,.36-.24.6-.6.6h-1.79c-.36,0-.69-.22-.81-.56l-5.41-11.87h-.12v11.83c0,.36-.24.6-.6.6h-.5c-.36,0-.6-.24-.6-.6v-12.72Z"/>
          <path d="M212.25,97.12c0,.35-.13.54-.39.54-.11,0-.22-.04-.37-.11-.82-.43-2.12-.91-3.69-.91-1.91,0-3.36.7-3.36,2.11,0,3.54,8.56,1.36,8.56,6.49,0,3.04-2.8,3.85-5.66,3.85-2.02,0-3.51-.76-4.16-1.17-.22-.11-.37-.39-.37-.67v-.37c0-.35.11-.52.35-.52.11,0,.24.04.39.11.8.41,2.21,1,3.88,1,2.43,0,3.73-.51,3.73-2.07,0-3.82-8.56-1.51-8.56-6.62,0-3.09,2.84-3.76,5.05-3.76s3.53.63,4.25,1.09c.2.13.35.41.35.67v.35Z"/>
        </g>
      </g>
      <g>
        <path d="M214.25,34.93c0-8.94,5.76-12.76,18.49-12.76,0,5.65-6.07,13.91-17.35,13.91,0,0,2.49-4.76,8.1-6.95-4.63,1.16-7.66,4.06-9.24,5.8Z"/>
        <ellipse cx="143.66" cy="58.05" rx="6.94" ry="6.95"/>
        <g>
          <path d="M48.94,61.51c.39,9.13,5.61,13.83,14.09,13.83,5.18,0,9.35-1.7,11.71-2.81.39-.16.79-.24,1.02-.24.71,0,1.02.47,1.02,1.42v1.97c0,1.03-.55,2.05-1.34,2.36-2.12,1.18-6.6,3.2-12.41,3.2-12.57,0-21.02-7.77-21.02-20.92s7.51-20.76,19.53-20.76,17.74,8.09,17.58,19.58c0,1.42-1.02,2.36-2.44,2.36h-27.75ZM73.15,55.6c-.78-6.53-5.09-10.13-11.61-10.13s-11.28,3.36-12.46,10.13h24.07Z"/>
          <path d="M106.78,45.5c-1.57,0-6.85.16-6.85,4.33,0,8.49,22.9,4.72,22.9,19.27,0,8.57-8.45,12.19-16.37,12.19-5.73,0-10.1-2.06-12.14-3.24-.79-.31-1.33-1.34-1.33-2.44v-1.97c0-.94.31-1.42,1.02-1.42.24,0,.63.08,1.02.24,2.28,1.18,6.49,2.93,11.43,2.93,3.84,0,9.43-1.18,9.43-5.98,0-9.99-22.9-5.11-22.9-19.43,0-8.49,7.98-10.38,14.26-10.38s10.2,1.81,12,2.99c.79.39,1.33,1.42,1.33,2.52v1.97c0,1.34-.63,1.65-2.04,1.18-2.28-1.18-6.36-2.75-11.77-2.75Z"/>
          <path d="M183.2,81.24c-7.26,0-11.78-4.57-11.78-11.84v-23.49h-4.42c-1.52,0-2.53-1.02-2.53-2.54v-1.27c0-1.52,1.01-2.54,2.53-2.54h4.4v-11.37c.17-1.52,1.06-2.54,2.57-2.54h1.79c1.52,0,2.58,1.02,2.58,2.54v11.37h10.18c1.52,0,2.53,1.02,2.53,2.54v1.27c0,1.52-1.01,2.54-2.53,2.54h-10.18v22.23c0,4.91,1.81,6.77,6.12,6.77,1.77,0,2.79-.25,4.14-.51,1.6-.34,2.45.34,2.45,1.78v.85c0,4.06-4.9,4.23-7.86,4.23Z"/>
          <path d="M282.42,55.27c0-7.41-3.67-10.21-8.27-10.21s-8.03,3.43-11.31,6.97v26.78c0,1.48-.88,2.47-2.36,2.47h-2.13c-1.48,0-2.46-.99-2.46-2.47V21.17c0-1.48.99-2.47,2.46-2.47h2.05c1.48,0,2.46.99,2.46,2.47v23.9c4.27-3.46,7.68-5.4,12.94-5.4,6.65,0,13.58,3.59,13.58,14.86v24.28c0,1.48-.99,2.47-2.46,2.47h-2.03c-1.48,0-2.46-.99-2.46-2.47v-23.54Z"/>
          <path d="M211.86,61.51c.39,9.13,5.61,13.83,14.09,13.83,5.18,0,9.35-1.7,11.71-2.81.39-.16.79-.24,1.02-.24.71,0,1.02.47,1.02,1.42v1.97c0,1.03-.55,2.05-1.34,2.36-2.12,1.18-6.6,3.2-12.41,3.2-12.57,0-21.02-7.77-21.02-20.92s7.51-20.76,19.53-20.76,17.74,8.09,17.58,19.58c0,1.42-1.02,2.36-2.44,2.36h-27.75ZM236.07,55.6c-.78-6.53-5.09-10.13-11.61-10.13s-11.28,3.36-12.46,10.13h24.07Z"/>
        </g>
      </g>
    </g>
  </g>
</svg>