<?xml version="1.0" encoding="UTF-8"?>
<svg id="Layer_1" data-name="Layer 1" xmlns="http://www.w3.org/2000/svg" viewBox="0 0 480 480">
  <defs>
    <style>
      .cls-1 {
        fill: #231f20;
        stroke-width: 0px;
      }
    </style>
  </defs>
  <polygon class="cls-1" points="275.16 313.58 156.31 313.58 156.31 166.42 275.16 166.42 275.16 187.33 270.84 187.33 270.84 170.74 160.62 170.74 160.62 309.26 270.84 309.26 270.84 292.59 275.16 292.59 275.16 313.58"/>
  <path class="cls-1" d="M208.66,236.72h-11.31v28.2h6.71v-6.66h4.6c5.72-.04,10.35-4.87,10.35-10.77s-4.64-10.73-10.35-10.77ZM208.59,252.21h-4.53v-9.44h4.53c2.06,0,3.74,2.12,3.74,4.72s-1.67,4.72-3.74,4.72Z"/>
  <path class="cls-1" d="M281.31,244.6c.15.15.27.29.39.46l1.01,1.41,4.68-4.68-.94-1.04c-2.71-2.98-6.52-4.69-10.45-4.69-7.88,0-14.3,6.61-14.3,14.74s6.42,14.77,14.3,14.77c3.93,0,7.73-1.7,10.42-4.66l.94-1.04-4.6-4.6-1.49,1.8c-2.89,3.18-7.75,3.13-10.54,0-1.52-1.69-2.35-3.92-2.35-6.29s.83-4.59,2.35-6.26c2.79-3.12,7.6-3.21,10.58.06Z"/>
  <polygon class="cls-1" points="323.69 236.72 313.62 236.72 302.17 246.51 302.17 236.72 295.48 236.72 295.48 264.92 302.17 264.92 302.17 254.77 304.16 253.11 313.73 264.92 322.81 264.92 309.3 248.81 323.69 236.72"/>
  <g>
    <path class="cls-1" d="M206.42,205.22c1.96,0,3.84.87,5.32,2.49.15.15.27.29.39.46l1.01,1.41,4.68-4.68-.94-1.04c-2.75-3.02-6.46-4.69-10.45-4.69-.65,0-6.46.13-8.81,4.58-1.08,2-1.27,4.45-.49,6.52,1.44,4.03,5.74,5.32,8.87,6.27,2.67.81,4.01,1.42,4.46,2.66l.03.09c.06.24.17.9-.07,1.46-.52,1.23-1.87,1.87-3.99,1.89-1.99,0-3.86-.87-5.32-2.5-.13-.13-.21-.23-.27-.33l-.96-1.68-4.86,4.86.96,1.04c2.72,2.96,6.53,4.65,10.45,4.65,4.85-.04,8.76-2.18,10.19-5.56,1.36-3.12.16-6.02.16-6.02h0c-1.53-4.05-5.72-5.34-9.04-6.35l-.42,1.41.43-1.41h0c-2.53-.76-3.9-1.36-4.31-2.5-.17-.49-.11-1.17.14-1.65.71-1.34,2.82-1.37,2.84-1.37Z"/>
    <polygon class="cls-1" points="268.63 228.02 275.32 228.02 275.32 216.85 288.35 216.85 288.35 210.8 275.32 210.8 275.32 205.87 288.35 205.87 288.35 199.83 268.63 199.83 268.63 228.02"/>
    <polygon class="cls-1" points="300.45 205.87 308.26 205.87 308.26 228.02 314.95 228.02 314.95 205.87 322.76 205.87 322.76 199.83 300.45 199.83 300.45 205.87"/>
    <polygon class="cls-1" points="248.43 200.39 233.77 200.9 226.88 213.85 241.54 213.35 248.43 200.39"/>
    <path class="cls-1" d="M252.33,208.95c.19-1.37.19-2.71.01-4.03l-2.16-3.45-6.88,12.96,2.78,4.46c3.29-2.27,5.63-5.77,6.24-9.94Z"/>
    <path class="cls-1" d="M227.06,215.91l2.52,4.03c1.54.78,3.24,1.33,5.05,1.59,3.56.51,6.99-.15,9.88-1.69l-2.78-4.44-14.67.51Z"/>
    <path class="cls-1" d="M251.09,199.98c.07.12.15.26.22.39.98,1.77,1.61,3.74,1.8,5.8.12,1.15.1,2.33-.07,3.52-.62,4.25-3,7.83-6.35,10.17-.51.35-1.02.68-1.58.96-2.99,1.62-6.55,2.33-10.23,1.79-1.56-.21-3.05-.65-4.42-1.26h-.01c-1.01-.44-1.95-.98-2.82-1.62-.54-.36-1.07-.78-1.55-1.22,1.48,2.52,3.68,4.62,6.38,6.03l2.38,3.82,14.66-.51-1.9-3.05c.55-.26,1.09-.57,1.61-.9l1.85,2.96,6.89-12.94-1.74-2.8c-.04-4.29-1.97-8.29-5.12-11.14Z"/>
  </g>
  <path class="cls-1" d="M247.18,264.8h7.19l-11.49-27.97h-4.23l-11.48,27.97h7.19l2.16-5.73h8.45l2.19,5.73ZM239.12,252.26l1.64-4.3h.01s1.63,4.3,1.63,4.3l.32.86h-3.92l.32-.86Z"/>
  <g>
    <path class="cls-1" d="M200.48,274.65h-3.74v8.85h1.39v-3.23h2.36c1.35,0,2.71-.87,2.71-2.8s-1.36-2.82-2.71-2.82ZM201.8,277.46c0,.95-.54,1.55-1.4,1.55h-2.26v-3.09h2.26c.87,0,1.4.59,1.4,1.55Z"/>
    <path class="cls-1" d="M208.33,274.65l-3.34,8.85h1.5l.9-2.44h3.2l.9,2.44h1.5l-3.33-8.85h-1.32ZM210.15,279.82h-2.33l1.17-3.16,1.17,3.16Z"/>
    <path class="cls-1" d="M221.47,281.28c-.35.49-.99,1.08-2.01,1.08-1.53,0-2.52-1.29-2.52-3.29s.99-3.29,2.52-3.29c1.04,0,1.66.58,2,1.06l.18.26.87-.96-.12-.17c-.5-.66-1.41-1.46-2.96-1.46-2.35.01-3.93,1.84-3.93,4.55,0,2.26,1.23,4.54,3.97,4.54,1.51,0,2.43-.79,2.93-1.45l.13-.17-.87-.96-.18.25Z"/>
    <polygon class="cls-1" points="232.67 274.65 230.92 274.65 227.21 278.35 227.21 274.65 225.82 274.65 225.82 283.5 227.21 283.5 227.21 280.17 228.06 279.33 231.48 283.5 233.16 283.5 228.99 278.35 232.67 274.65"/>
    <path class="cls-1" d="M238.73,274.65l-3.34,8.85h1.5l.9-2.44h3.19l.9,2.44h1.5l-3.33-8.85h-1.32ZM240.55,279.82h-2.33l1.17-3.16,1.17,3.16Z"/>
    <path class="cls-1" d="M249.55,279.72h2.12v1.84c-.46.49-1.17.8-1.85.8-1.54,0-2.5-1.27-2.5-3.31s.97-3.28,2.54-3.28c1.02,0,1.65.58,2,1.07l.18.25.85-.96-.12-.16c-.5-.66-1.42-1.45-2.96-1.45-2.35.01-3.93,1.83-3.93,4.53s1.58,4.55,3.94,4.55c1.22,0,2.45-.57,3.13-1.45l.05-.07v-3.62h-3.44v1.26Z"/>
    <polygon class="cls-1" points="256.81 283.5 262.73 283.5 262.73 282.24 258.19 282.24 258.19 279.55 262.27 279.55 262.27 278.29 258.19 278.29 258.19 275.92 262.73 275.92 262.73 274.65 256.81 274.65 256.81 283.5"/>
    <polygon class="cls-1" points="287.92 281.21 284.83 274.65 283.4 274.65 283.4 283.5 284.79 283.5 284.79 277.63 287.35 283.13 288.5 283.13 291.06 277.63 291.06 283.5 292.45 283.5 292.45 274.65 291.02 274.65 287.92 281.21"/>
    <path class="cls-1" d="M299.76,274.52c-2.21,0-3.7,1.83-3.7,4.55s1.49,4.54,3.7,4.54,3.7-1.82,3.7-4.54-1.49-4.55-3.7-4.55ZM302.01,279.07c0,2.02-.86,3.28-2.25,3.28s-2.25-1.26-2.25-3.28.86-3.29,2.25-3.29,2.25,1.26,2.25,3.29Z"/>
    <path class="cls-1" d="M313.47,277.36c0-1.6-1.11-2.71-2.7-2.71h-3.68v8.85h1.39v-3.37h1.81l2.08,3.37h1.62l-2.26-3.57c1.05-.33,1.73-1.32,1.73-2.57ZM312.07,277.39c0,.91-.57,1.47-1.5,1.47h-2.09v-2.94h2.2c.86,0,1.39.56,1.39,1.47Z"/>
    <polygon class="cls-1" points="323.03 275.92 323.03 274.65 317.11 274.65 317.11 283.5 323.03 283.5 323.03 282.24 318.49 282.24 318.49 279.55 322.57 279.55 322.57 278.29 318.49 278.29 318.49 275.92 323.03 275.92"/>
    <path class="cls-1" d="M276.95,279.65l-1.35,1.22-3.34-3.63c-.21-.24-.3-.49-.29-.76.01-.29.13-.54.35-.74.22-.2.46-.3.77-.28.29.01.52.12.72.34.2.21.29.46.27.75v.25s1.49.07,1.49.07v-.25c.04-.69-.18-1.31-.66-1.82-.48-.51-1.07-.79-1.77-.82-.7-.03-1.31.19-1.83.65-.52.47-.81,1.05-.84,1.75-.03.7.19,1.32.67,1.84l.15.17-.39.35c-.63.57-.97,1.29-1.01,2.14-.04.86.23,1.61.81,2.25.57.62,1.29.95,2.15,1,.86.04,1.62-.22,2.25-.79l.38-.35,1.24,1.35,1.12-1.02-1.24-1.35,1.35-1.22-1.01-1.11ZM272.93,282.64c-.45-.02-.82-.19-1.12-.53-.31-.34-.45-.71-.42-1.16s.19-.8.53-1.11l.38-.35,2.18,2.39-.38.33c-.34.31-.73.45-1.17.42Z"/>
  </g>
</svg>