<?xml version="1.0" encoding="UTF-8"?>
<svg id="Layer_1" xmlns="http://www.w3.org/2000/svg" viewBox="0 0 331.39 127.81">
  <defs>
    <style>
      .cls-1 {
        isolation: isolate;
      }

      .cls-2 {
        fill-rule: evenodd;
      }
    </style>
  </defs>
  <g class="cls-1">
    <path class="cls-2" d="M71.62,68.4c3.31-1.06,6.01-2.54,8.08-4.43,2.07-1.9,3.61-3.93,4.62-6.12,1.01-2.18,1.53-4.37,1.56-6.54.03-2.18-.37-4.1-1.19-5.76-.82-1.66-2.03-2.92-3.61-3.77-1.59-.85-3.49-1.02-5.71-.5-.23.05-.49.11-.76.18-.28.06-.53.15-.75.25.55.7.87,1.33.95,1.9.13.56.13,1.63.01,3.22-.12,1.59-.33,3.5-.65,5.74-.31,2.24-.69,4.72-1.13,7.43-.45,2.71-.92,5.52-1.42,8.41h0ZM83.61,79.15c-.54-2.31-1.48-4.12-2.83-5.42-1.35-1.3-3.21-1.67-5.56-1.13-.28.07-.55.14-.82.23-.27.09-.57.19-.88.32-.13.07-.26.13-.4.16-.14.03-.25.08-.33.15-.35.18-.71.35-1.09.51-.38.16-.74.33-1.09.51-.42,2.39-.81,4.71-1.17,6.96-.36,2.25-.66,4.34-.93,6.25-.26,1.92-.49,3.6-.66,5.05-.18,1.45-.25,2.57-.21,3.34,1-.09,2.11-.27,3.31-.55,2.5-.58,4.62-1.55,6.35-2.9,1.73-1.35,3.11-2.83,4.13-4.43,1.02-1.6,1.7-3.22,2.05-4.87.35-1.64.39-3.04.13-4.19h0ZM103.84,89.1c.41-.1.9-.58,1.46-1.44.56-.86,1.16-1.96,1.8-3.3.64-1.34,1.28-2.82,1.94-4.44.65-1.61,1.28-3.22,1.88-4.82.6-1.61,1.15-3.12,1.65-4.55.5-1.43.9-2.62,1.22-3.57.08-.7.18-1.37.3-2.01.13-.64.23-1.26.33-1.87-.62-.15-1.31-.26-2.08-.32-.78-.07-1.62.01-2.55.22-.65.15-1.32.92-2.03,2.3-.71,1.38-1.36,3.06-1.98,5.03-.62,1.97-1.15,4.08-1.6,6.33-.46,2.25-.8,4.32-1.02,6.2-.22,1.88-.29,3.42-.21,4.62.08,1.2.38,1.74.89,1.62h0ZM178.03,105.04c1.2-.28,2.37-1.61,3.5-3.99,1.13-2.38,2.2-5.4,3.21-9.04-2.34,2.74-4.24,5.1-5.71,7.1-1.47,2-2.12,3.54-1.96,4.63.07.71.21,1.12.43,1.22.22.1.39.13.54.1h0ZM182.06,71.27c.42-.1.93-.66,1.55-1.68.62-1.02,1.25-2.29,1.9-3.8.65-1.52,1.31-3.19,1.98-5.03.67-1.84,1.3-3.64,1.89-5.41.59-1.77,1.12-3.39,1.58-4.86.46-1.47.82-2.6,1.08-3.39,0-.39.04-.78.1-1.16.06-.38.09-.76.1-1.15-.64-.24-1.39-.4-2.23-.47-.85-.07-1.75,0-2.73.23-.65.15-1.3.94-1.94,2.35-.65,1.42-1.25,3.13-1.81,5.14-.56,2-1.05,4.17-1.46,6.48-.42,2.31-.7,4.43-.87,6.34-.17,1.92-.19,3.49-.07,4.73.12,1.24.43,1.8.94,1.68h0ZM217.47,63.14c.93-.21,1.77-.74,2.52-1.57.76-.83,1.46-1.86,2.1-3.08-1.78-.32-3.41-.92-4.88-1.8-.32.95-.58,1.85-.8,2.71-.22.85-.34,1.58-.38,2.17-.03.59.06,1.03.27,1.33.21.29.6.37,1.15.24h0ZM222.05,31.73c-.79.18-1.55.54-2.31,1.08-.75.54-1.48,1.19-2.18,1.97-.7.77-1.34,1.65-1.91,2.64-.58.98-1.06,2.03-1.43,3.15.52-.07,1.19-.07,2.02,0,.82.08,1.65.23,2.48.45.83.22,1.55.54,2.16.96.61.42.96.93,1.05,1.55.03.33-.05.83-.24,1.48-.19.65-.44,1.42-.75,2.29-.31.88-.68,1.83-1.1,2.85-.42,1.02-.83,2.05-1.23,3.06,1.64.74,3.35,1.2,5.14,1.37.46-1.38.87-2.83,1.23-4.35.35-1.52.63-2.98.81-4.39.19-1.41.31-2.72.37-3.92.06-1.21.04-2.24-.06-3.09-.42-2.83-.89-4.79-1.44-5.88-.55-1.09-1.42-1.5-2.62-1.22h0ZM244.09,20.78c.19,1.22.52,2.25,1.01,3.09.49.84,1.09,1.54,1.81,2.11.59-2.09,1.04-4.19,1.35-6.31.32-2.12.35-4.03.1-5.73-.21-1.51-.48-2.5-.83-2.95-.35-.45-.78-.62-1.29-.5-.42.1-.79.52-1.13,1.28-.33.76-.6,1.66-.79,2.71-.2,1.04-.32,2.13-.38,3.27-.05,1.13,0,2.15.16,3.04h0ZM269.43,30.42c.24-.64.49-.92.76-.84.27.09.5.32.72.72.21.39.36.83.45,1.32.09.49.11.82.05.98-.3.8-.68,1.99-1.15,3.55-.47,1.57-1.03,3.3-1.69,5.18-.66,1.88-1.39,3.83-2.19,5.85-.8,2.02-1.64,3.89-2.53,5.63-.89,1.74-1.84,3.24-2.83,4.5-1,1.25-2.02,2.07-3.05,2.46-.05.01-.1.04-.16.08-.06.04-.14.07-.23.09-.37.08-1.03.16-1.99.24-.96.07-1.97.02-3.04-.18-1.07-.19-2.03-.58-2.9-1.16-.87-.58-1.4-1.51-1.59-2.78-.2-1.27-.12-2.85.22-4.73.35-1.88.74-3.78,1.17-5.68.44-1.91.83-3.68,1.18-5.32.35-1.64.47-2.81.35-3.52-.1-.85-.47-1.53-1.13-2.04-.65-.51-1.51-.98-2.59-1.41-.41,1.17-.84,2.24-1.27,3.22-.43.98-.77,1.77-1.02,2.36-.04.14-.12.23-.21.27-.46,1.04-1,2.26-1.62,3.66-.85,1.9-1.92,3.82-3.2,5.75-1.29,1.93-2.78,3.75-4.48,5.46-1.7,1.71-3.65,2.96-5.86,3.77-1.16,2.37-2.54,4.41-4.13,6.15-1.59,1.73-3.39,2.83-5.38,3.29-1.66.39-3.22.36-4.67-.09-1.44-.44-2.73-1.12-3.87-2.03-1.14-.91-2.06-1.95-2.77-3.12-.71-1.17-1.15-2.31-1.3-3.39-.04-.23-.06-.47-.08-.72-.33.7-.67,1.41-1.02,2.14-1.1,2.3-2.22,4.55-3.34,6.73-1.13,2.19-2.21,4.2-3.24,6.06-1.03,1.85-1.95,3.28-2.74,4.29-.07.11-.15.21-.23.27-.08.07-.16.16-.23.27-.75,3.93-1.61,7.75-2.58,11.46-.97,3.71-2.05,7.05-3.24,10-1.19,2.96-2.53,5.41-4,7.36-1.47,1.95-3.07,3.13-4.78,3.52-1.48.34-2.73.37-3.74.1-1.02-.28-1.87-.73-2.54-1.35-.68-.62-1.2-1.33-1.55-2.13-.35-.79-.58-1.52-.69-2.18-.11-.9.15-1.99.77-3.29.63-1.29,1.54-2.73,2.73-4.32,1.19-1.59,2.6-3.33,4.21-5.21,1.61-1.89,3.33-3.9,5.18-6.03.78-3.59,1.49-7.35,2.14-11.28.65-3.93,1.25-7.78,1.78-11.56-.59,1.45-1.22,2.91-1.87,4.38-.66,1.47-1.31,2.8-1.96,4-.65,1.2-1.28,2.2-1.9,3-.62.8-1.16,1.25-1.62,1.37-.93.21-2.04.25-3.34.11-1.3-.14-2.56-.47-3.78-.99-1.22-.54-2.29-1.25-3.2-2.16-.92-.91-1.48-2.02-1.69-3.35-.09-.74-.1-1.79,0-3.15-.44.96-.89,1.94-1.36,2.94-.91,1.94-1.87,3.75-2.88,5.42-1,1.67-2.04,3.13-3.12,4.38-1.08,1.25-2.13,2.09-3.15,2.52-.34.22-.97.32-1.91.29-.93-.03-1.89-.22-2.87-.58-.98-.36-1.89-.9-2.72-1.64-.83-.73-1.33-1.69-1.51-2.87-.16-.89-.12-2.22.11-3.97.23-1.76.52-3.7.88-5.83.36-2.13.76-4.36,1.2-6.68.44-2.32.81-4.51,1.11-6.58-.67,1.13-1.45,2.53-2.35,4.2-.91,1.67-1.86,3.45-2.86,5.35-1,1.89-2.01,3.82-3.01,5.78-1.01,1.97-1.94,3.83-2.8,5.59-.86,1.76-1.58,3.34-2.16,4.74-.57,1.4-.94,2.49-1.11,3.26.09.61.23,1.09.41,1.44.18.35.14.7-.12,1.06-.22.29-.79.45-1.72.47-.92.02-1.91-.14-2.96-.48-1.05-.34-2.03-.88-2.94-1.63-.9-.74-1.45-1.75-1.65-3.02-.15-.84-.12-2.02.06-3.52.08-.58.16-1.19.26-1.82-.43.96-.88,1.93-1.35,2.92-.9,1.89-1.86,3.66-2.87,5.31-1.01,1.64-2.05,3.06-3.11,4.23-1.07,1.17-2.12,1.95-3.16,2.34l-.42.09c-.37.09-1.03.17-1.99.24-.96.08-1.97.03-3.03-.14-1.06-.17-2.03-.54-2.89-1.12-.87-.58-1.4-1.5-1.6-2.78-.03-.33-.05-.69-.07-1.08-.02-.38-.01-.85,0-1.39-.59,1.26-1.17,2.45-1.76,3.59-.59,1.14-1.17,2.16-1.74,3.07-.57.91-1.12,1.66-1.64,2.24-.52.58-.99.92-1.41,1.02-.93.21-2.03.25-3.34.11-1.3-.13-2.56-.47-3.78-.99-1.22-.52-2.29-1.24-3.2-2.15-.92-.91-1.48-2.02-1.69-3.34-.11-.9-.06-2.23.14-3.98.2-1.75.52-3.7.95-5.85.43-2.15.97-4.34,1.62-6.59.65-2.25,1.36-4.33,2.14-6.24.78-1.91,1.6-3.51,2.47-4.81.87-1.3,1.76-2.06,2.69-2.27,1.25-.29,2.45-.36,3.61-.22,1.16.15,2.26.42,3.3.81,1.04.39,2,.87,2.89,1.42.89.55,1.66,1.09,2.31,1.62.42-2.39.6-3.94.53-4.66-.15-.85.2-1.34,1.04-1.49.84-.15,1.79-.05,2.85.29,1.05.34,2.04.83,2.97,1.47.93.64,1.45,1.31,1.56,2.01.1.62.03,1.93-.18,3.96-.21,2.02-.49,4.32-.82,6.88-.33,2.56-.67,5.15-1.02,7.77-.34,2.61-.61,4.8-.79,6.55-.09,1.29.16,1.86.77,1.72.51-.12,1.09-.6,1.74-1.47.66-.86,1.36-1.96,2.12-3.3.76-1.35,1.55-2.85,2.36-4.5.81-1.65,1.59-3.34,2.33-5.07.74-1.73,1.45-3.41,2.13-5.03.67-1.62,1.25-3.07,1.73-4.35.03-.08.06-.15.09-.22.09-.52.18-1.04.27-1.55.32-1.88.57-3.61.74-5.18.17-1.57.2-2.84.08-3.78-.15-.84.2-1.34,1.04-1.49.84-.15,1.81-.05,2.88.29,1.08.33,2.08.82,3.01,1.46.93.64,1.45,1.31,1.57,2.02.05.43.03,1.22-.07,2.39-.1,1.17-.25,2.54-.47,4.13-.22,1.59-.46,3.31-.74,5.18-.27,1.87-.54,3.71-.81,5.53.45-1.03,1.02-2.29,1.72-3.8.7-1.5,1.45-3.12,2.24-4.84.8-1.72,1.65-3.48,2.54-5.27.9-1.79,1.78-3.47,2.64-5.03.86-1.56,1.67-2.93,2.45-4.11.77-1.18,1.47-2.03,2.07-2.56.07-.11.24-.25.49-.41.08-.07.19-.12.33-.15.28-.06.47-.08.57-.06.58-.04,1.25.05,2.03.26.78.21,1.52.5,2.21.88.7.37,1.3.8,1.8,1.26.5.47.78.96.86,1.48.05.43.02,1.22-.08,2.36-.1,1.15-.24,2.53-.43,4.16-.19,1.63-.41,3.39-.68,5.27-.27,1.89-.52,3.78-.77,5.67-.25,1.89-.49,3.68-.73,5.4-.24,1.71-.41,3.17-.52,4.36-.05,1.08.21,1.56.77,1.43.74-.17,1.65-1.16,2.71-2.97,1.07-1.81,2.18-3.95,3.33-6.44,1.15-2.49,2.26-5.06,3.33-7.72l2.2-5.5c.14-.56.27-1.13.41-1.7.58-2.33,1.24-4.48,1.98-6.43.74-1.95,1.53-3.59,2.37-4.91.84-1.32,1.72-2.08,2.65-2.29,1.25-.29,2.45-.36,3.61-.2,1.15.15,2.25.42,3.3.82,1.04.4,2.01.88,2.89,1.43.88.56,1.66,1.12,2.32,1.64.12-2.22.13-3.74.04-4.54-.15-.84.2-1.33,1.05-1.45.85-.12,1.8-.03,2.85.29,1.05.31,2.05.8,3,1.46.96.66,1.5,1.34,1.61,2.04.03.33,0,1.4-.1,3.21-.09,1.8-.26,4.08-.49,6.85-.24,2.76-.58,5.89-1.01,9.37-.43,3.49-.94,7.13-1.53,10.92.76-1.35,1.59-2.89,2.47-4.64.89-1.74,1.78-3.52,2.68-5.34.9-1.81,1.77-3.63,2.62-5.43.85-1.8,1.63-3.46,2.32-4.96.7-1.5,1.29-2.81,1.76-3.92.48-1.11.81-1.88,1-2.32.07-.17.14-.32.2-.44.14-1.25.41-2.5.81-3.74.6-1.85,1.41-3.53,2.45-5.07,1.04-1.53,2.21-2.83,3.52-3.89,1.32-1.06,2.67-1.75,4.06-2.07,1.53-.35,2.96-.27,4.3.25,1.34.51,2.53,1.29,3.57,2.32,1.04,1.03,1.9,2.22,2.58,3.57.68,1.35,1.09,2.67,1.24,3.95.27,1.79.23,3.95-.11,6.46-.34,2.52-.94,5.1-1.79,7.73,1.24-.77,2.45-1.81,3.63-3.11,1.19-1.3,2.3-2.73,3.32-4.28,1.03-1.55,1.98-3.16,2.83-4.83.61-1.18,1.17-2.34,1.66-3.47-.02-.15,0-.29.04-.42.26-.55.52-1.21.79-1.97.26-.77.58-1.61.95-2.53-.91-.38-1.84-.79-2.78-1.26-.94-.47-1.79-1.07-2.58-1.82-.78-.74-1.45-1.64-2.01-2.68-.56-1.04-.94-2.32-1.14-3.83-.28-1.84-.1-3.63.54-5.39.64-1.76,1.48-3.35,2.52-4.79,1.03-1.43,2.16-2.62,3.38-3.56,1.22-.94,2.29-1.52,3.22-1.73,1.02-.24,1.98.09,2.89.97.91.89,1.54,2.61,1.89,5.16.29,2.08.25,4.32-.09,6.71-.34,2.4-.84,4.76-1.46,7.1,1.04.49,2.15.9,3.32,1.24,1.17.34,2.26.73,3.27,1.18,1.01.45,1.87,1.03,2.6,1.74.72.71,1.19,1.7,1.38,2.97.08.56.05,1.62-.11,3.17-.15,1.55-.34,3.27-.56,5.18-.21,1.9-.45,3.84-.71,5.79-.25,1.96-.45,3.67-.61,5.11-.07,1.38.2,2,.8,1.86.51-.12,1.06-.65,1.65-1.59.58-.94,1.2-2.13,1.84-3.57.64-1.44,1.3-3.06,1.99-4.85.68-1.79,1.35-3.6,2-5.44.65-1.83,1.28-3.6,1.88-5.3.61-1.7,1.15-3.19,1.63-4.47h0ZM72.62,38.62c4.4-1.02,8.1-1.27,11.13-.75,3.02.52,5.37,1.55,7.04,3.09,1.67,1.54,2.69,3.47,3.06,5.8.37,2.33.11,4.8-.77,7.42-.88,2.62-2.39,5.26-4.53,7.92-2.14,2.66-4.88,5.09-8.22,7.28,2.25.45,4.3,1.5,6.14,3.15,1.85,1.65,3.16,4.16,3.94,7.53.56,2.41.56,4.74,0,6.98-.55,2.25-1.48,4.28-2.79,6.1-1.31,1.81-2.93,3.36-4.85,4.63-1.93,1.28-3.97,2.16-6.15,2.67-2.04.47-3.98.71-5.83.73-1.85.01-3.56-.11-5.14-.38-.54-.02-1.24-.13-2.08-.32-.85-.19-1.69-.47-2.53-.84-.84-.36-1.59-.78-2.26-1.23-.67-.45-1.06-.96-1.19-1.52-.1-.42-.07-1.28.1-2.58.16-1.3.41-2.93.73-4.89.33-1.95.74-4.15,1.22-6.57.48-2.43.98-4.99,1.47-7.69-.34-.41-.6-.87-.79-1.39-.19-.51-.3-1.01-.31-1.5-.02-.48.05-.9.19-1.25.14-.35.37-.56.69-.63.19-.05.37-.08.56-.1.19-.02.38-.05.57-.09.78-4.23,1.49-8.39,2.16-12.49.66-4.1,1.1-7.79,1.31-11.06-2.29,1.89-4.47,4.11-6.55,6.63-2.07,2.53-3.85,5.17-5.33,7.93-1.48,2.76-2.55,5.52-3.2,8.28-.65,2.76-.71,5.32-.16,7.68.22.97.47,1.7.72,2.17.26.48.52.85.77,1.1.25.26.47.46.65.62.18.15.31.37.37.64.14.6-.23.9-1.11.88-.88-.02-1.92-.4-3.12-1.15-1.2-.75-2.41-1.89-3.65-3.43-1.24-1.54-2.14-3.54-2.7-5.99-.26-1.11-.21-2.49.14-4.13.35-1.64.97-3.4,1.84-5.29.88-1.88,2.02-3.84,3.43-5.87,1.41-2.03,3.01-4.01,4.8-5.94,1.8-1.92,3.81-3.72,6.03-5.38,2.23-1.66,4.61-3.1,7.15-4.33-.03-.77-.12-1.48-.27-2.13-.13-.55-.06-.92.22-1.11.27-.19.67-.24,1.2-.17.53.07,1.14.23,1.84.49.69.25,1.38.59,2.06,1.02.36-.13.7-.24,1.03-.31.32-.07.65-.15.97-.22h0Z"/>
    <path class="cls-2" d="M196.76,82.54c48.44-8.57,92.62-16.54,92.62-16.54-16.45,5.45-56.29,13.59-93.69,21.68.35-1.65.76-3.64,1.07-5.14h0ZM61.11,118.93s-.34-12.84,63.7-23.82c17.95-3.08,38.77-6.72,59.44-10.36-.69,1.75-1.84,4.04-3.64,6.22-30.89,6.83-57.45,13.36-63.71,17.87-9.11,6.57-10.82,11.12-12.06,11.37-1.21.24-14.41-12.51-38.95-.38-3.65,1.81-4.78-.9-4.78-.9h0Z"/>
    <path d="M281.65,30.86h-.61s.08-4.41.08-4.41l-1.71,4.37h-.43s-1.57-4.43-1.57-4.43l-.08,4.39h-.54s.09-5.04.09-5.04l.94.02,1.44,4.05,1.55-3.99.92.02-.09,5.03ZM274.65,30.74h-.63s.08-4.49.08-4.49l-1.44-.02v-.55s3.53.06,3.53.06v.55s-1.45-.02-1.45-.02l-.08,4.48Z"/>
  </g>
</svg>