<?xml version="1.0" encoding="UTF-8"?>
<svg id="Layer_1" data-name="Layer 1" xmlns="http://www.w3.org/2000/svg" xmlns:xlink="http://www.w3.org/1999/xlink" viewBox="0 0 480 480">
  <defs>
    <style>
      .cls-1 {
        fill: #231f20;
      }

      .cls-1, .cls-2, .cls-3, .cls-4 {
        stroke-width: 0px;
      }

      .cls-2 {
        fill: none;
      }

      .cls-5 {
        clip-path: url(#clippath-1);
      }

      .cls-6 {
        opacity: .75;
      }

      .cls-3 {
        fill: url(#radial-gradient-2);
      }

      .cls-7 {
        clip-path: url(#clippath);
      }

      .cls-4 {
        fill: url(#radial-gradient);
      }

      .cls-8 {
        mask: url(#mask);
      }
    </style>
    <clipPath id="clippath">
      <rect class="cls-2" x="193" y="243.56" width="21.05" height="26.02"/>
    </clipPath>
    <clipPath id="clippath-1">
      <polygon class="cls-2" points="203.52 269.58 193 269.58 198.26 256.57 203.52 243.56 208.78 256.57 214.04 269.58 203.52 269.58"/>
    </clipPath>
    <radialGradient id="radial-gradient" cx="-1603.25" cy="701.36" fx="-1603.25" fy="701.36" r="2.64" gradientTransform="translate(-5527.57 13348.74) rotate(90) scale(8.18 -8.18)" gradientUnits="userSpaceOnUse">
      <stop offset="0" stop-color="#fff"/>
      <stop offset="1" stop-color="#000"/>
    </radialGradient>
    <mask id="mask" x="181.55" y="234.3" width="43.95" height="44.54" maskUnits="userSpaceOnUse">
      <rect class="cls-4" x="187.82" y="240.01" width="31.41" height="33.13" transform="translate(-102.75 140.6) rotate(-30.84)"/>
    </mask>
    <radialGradient id="radial-gradient-2" cx="202.87" cy="264.34" fx="202.87" fy="264.34" r="18.13" gradientTransform="translate(160.29 -68.05) rotate(30.84)" gradientUnits="userSpaceOnUse">
      <stop offset=".74" stop-color="#fff"/>
      <stop offset="1" stop-color="#e5e5e5"/>
    </radialGradient>
  </defs>
  <g class="cls-6">
    <g class="cls-7">
      <g class="cls-5">
        <g class="cls-8">
          <rect class="cls-3" x="187.82" y="240.01" width="31.41" height="33.13" transform="translate(-102.75 140.6) rotate(-30.84)"/>
        </g>
      </g>
    </g>
  </g>
  <g>
    <path class="cls-1" d="M164.31,218.63h23.53v-9.55h-22.58c.67-3.33,1.7-6.52,3.04-9.56,1.46-3.39,3.32-6.58,5.54-9.53h.02c2.71-3.61,5.93-6.84,9.54-9.54,2.95-2.22,6.14-4.09,9.53-5.56,3.03-1.34,6.24-2.37,9.55-3.04,2.46-.5,4.96-.8,7.53-.91l.02-9.55c-2.56.09-5.08.34-7.55.77-3.27.54-6.47,1.38-9.55,2.47-3.32,1.16-6.5,2.64-9.53,4.38-1.02.59-2.02,1.22-3,1.88-2.31,1.54-4.49,3.22-6.54,5.05-1.59,1.43-3.1,2.92-4.51,4.51-1.83,2.03-3.51,4.23-5.04,6.52-.67.99-1.3,1.98-1.9,3.02-1.72,3.01-3.21,6.21-4.38,9.53-1.09,3.06-1.92,6.26-2.46,9.56-.53,3.11-.79,6.29-.79,9.55v68.39h9.53v-68.39Z"/>
    <path class="cls-1" d="M212.04,170.89c3.26,0,6.46.32,9.53.95,3.32.68,6.52,1.7,9.55,3.04,3.42,1.48,6.61,3.35,9.55,5.56,3.62,2.72,6.83,5.93,9.53,9.53v.02h11.46c-.61-1.04-1.24-2.06-1.91-3.06-1.53-2.27-3.21-4.45-5.03-6.49-1.43-1.58-2.94-3.09-4.52-4.5-2.04-1.83-4.21-3.52-6.53-5.05-.99-.66-1.99-1.29-3.01-1.89-3.03-1.73-6.22-3.21-9.55-4.38-3.08-1.09-6.27-1.92-9.55-2.47-3.09-.53-6.29-.8-9.53-.8-.68,0-1.34.02-2.01.03l-.02,9.55c.66-.03,1.34-.05,2.02-.05Z"/>
    <path class="cls-1" d="M250.2,218.61c0-3.29-.42-6.49-1.2-9.54-.87-3.39-2.2-6.58-3.91-9.55-1.26-2.18-2.74-4.23-4.42-6.11-1.06-1.2-2.19-2.37-3.4-3.42-1.88-1.68-3.95-3.15-6.15-4.43-2.96-1.72-6.17-3.04-9.55-3.9-.68-.18-1.36-.33-2.05-.47-2.18-.44-4.43-.7-6.74-.73-.1,0-.19,0-.29,0h-2.02s-4.76,0-4.76,0c-.14,0-.27,0-.4.01-1.48.02-2.93.13-4.35.32-.07.12-.11.25-.11.39v8.81h1.77v3.83c-.43.25-.72.72-.72,1.25v8.55c0,.53.29,1,.72,1.25v19.31c-.43.26-.72.72-.72,1.25v5.26c-4.86.95-8.54,5.23-8.54,10.38,0,.42.01.85.07,1.26h20.36s0,0,0,0h.01c.05-.41.07-.84.07-1.26,0-5.13-3.65-9.4-8.49-10.37v-5.26c0-.56-.32-1.04-.78-1.29v-10.42h0v-8.82c.46-.25.78-.73.78-1.28v-8.55c0-.56-.32-1.04-.78-1.28v-3.8h7.68c3.26.04,6.39.6,9.3,1.64,3.55,1.25,6.79,3.19,9.55,5.65.8.72,1.55,1.46,2.24,2.24,2.48,2.76,4.42,6.01,5.68,9.55h-12.2s-8.17-.01-8.17-.01v9.57h31.53v-.02Z"/>
    <path class="cls-1" d="M180.39,255.1l-12.17,31.8h6.46l1.78-5.1h11.64l1.8,5.1h6.46l-12.17-31.8h-3.8ZM178.49,276.03l3.79-10.84,3.81,10.84h-7.6Z"/>
    <polygon class="cls-1" points="206.45 286.89 206.45 274.64 215.81 255.1 209.53 255.1 203.46 268.8 197.36 255.1 191.09 255.1 200.45 274.64 200.45 286.89 206.45 286.89"/>
    <path class="cls-1" d="M241.13,269.59c.72-1.44,1.09-3.1,1.09-5s-.37-3.56-1.09-4.99c-.75-1.45-1.76-2.55-3.09-3.33-1.34-.8-2.86-1.19-4.62-1.19h-11.56s-2.37,0-2.37,0v31.81h5.99v-12.79h3.64l7.17,12.79h7.25l-7.58-13.09c.74-.21,1.41-.49,2.07-.87,1.34-.8,2.36-1.9,3.1-3.34ZM235.65,266.56c-.27.56-.62,1-1.09,1.31-.47.31-1.02.46-1.62.46h-7.47v-7.48h7.47c.62,0,1.16.15,1.63.46.47.31.84.74,1.09,1.32.26.56.38,1.22.38,1.96-.02.74-.14,1.4-.4,1.98Z"/>
    <path class="cls-1" d="M262.97,256.14c-.34-.2-.7-.36-1.07-.5-.08-.04-.16-.07-.25-.1,0,0,0,0-.02,0,0,0,0,0,0,0v-24.9h-9.53v24.9c-.13.05-.26.1-.38.15-.33.12-.64.29-.93.45-1.76.97-3.12,2.34-4.08,4.12-.97,1.77-1.45,3.82-1.45,6.15v9.02c0,2.32.49,4.39,1.45,6.15.96,1.78,2.32,3.16,4.08,4.12.29.16.59.31.93.45.12.06.26.11.38.16,0,0,0,0,0,0v12.69h-97.51v9.53h107.04v-2.25h0v-19.97s0,0,.02,0c.09-.02.17-.06.25-.09.36-.14.73-.32,1.07-.5,1.76-.96,3.13-2.34,4.09-4.12.96-1.76,1.45-3.83,1.45-6.15v-9.02c0-2.33-.49-4.37-1.45-6.15-.96-1.78-2.33-3.15-4.09-4.12ZM262.28,275.57c0,.84-.13,1.59-.38,2.27-.07.2-.15.39-.25.58,0,0-.02.02-.02.04h0s-.01.02-.02.03c0,0,0,.01,0,.02-.07.13-.15.24-.22.36-.37.58-.84,1.06-1.42,1.44-.08.05-.16.11-.25.16-.82.45-1.76.7-2.85.7s-2.01-.24-2.82-.7c-.05-.03-.09-.06-.13-.09-.75-.46-1.35-1.08-1.78-1.87,0,0,0,0,0,0,0,0,0,0,0,0,0-.02-.01-.02-.01-.04,0,0,0-.03-.02-.03-.17-.33-.29-.67-.38-1.04-.17-.56-.24-1.16-.24-1.82v-9.31c0-.65.07-1.25.24-1.81.09-.36.21-.72.38-1.03,0-.02,0-.03.02-.04,0-.02,0-.03.01-.05.01-.02.03-.04.04-.06.45-.82,1.08-1.45,1.88-1.9.04-.02.08-.03.11-.05.79-.42,1.69-.63,2.71-.63.83,0,1.57.13,2.23.39.21.08.42.18.62.29.82.46,1.45,1.11,1.88,1.96.01.02.02.04.03.06h0s0,0,0,0c0,.02,0,.03.02.04.1.19.18.37.25.57.25.67.38,1.43.38,2.27v9.31Z"/>
    <path class="cls-1" d="M289.52,275.54c0,1.83-.49,3.24-1.49,4.24-.98,1.01-2.36,1.5-4.16,1.5s-3.16-.5-4.13-1.5c-.97-1-1.47-2.41-1.47-4.24v-20.44h-5.98v20.29c0,2.49.45,4.62,1.34,6.4.91,1.76,2.23,3.12,3.97,4.05,1.73.93,3.83,1.38,6.27,1.38s4.53-.45,6.28-1.38c1.75-.93,3.08-2.28,3.99-4.05.91-1.78,1.36-3.92,1.36-6.4v-20.29h-5.98v20.44Z"/>
    <polygon class="cls-1" points="319.47 260.47 319.47 255.1 299.67 255.1 299.67 260.87 312.34 260.87 299.27 281.51 299.27 286.89 319.93 286.89 319.93 281.13 306.39 281.13 319.47 260.47"/>
    <rect class="cls-1" x="323.97" y="255.1" width="6.22" height="31.79"/>
  </g>
</svg>