<?xml version="1.0" encoding="UTF-8"?>
<svg id="Layer_1" data-name="Layer 1" xmlns="http://www.w3.org/2000/svg" viewBox="0 0 480 480">
  <defs>
    <style>
      .cls-1, .cls-2 {
        fill: #d3d3d3;
        stroke-width: 0px;
      }

      .cls-2 {
        fill-rule: evenodd;
      }
    </style>
  </defs>
  <path class="cls-2" d="M146.96,218.26c12.64,0,22.89,10.24,22.89,22.86s-10.25,22.86-22.89,22.86-22.88-10.24-22.88-22.86,10.24-22.86,22.88-22.86M181.59,241.11c0-19.12-15.51-34.63-34.63-34.63s-34.62,15.51-34.62,34.63,15.51,34.63,34.62,34.63,34.63-15.51,34.63-34.63"/>
  <path class="cls-2" d="M197.3,241.11v34.63h-11.74v-34.63c0-19.12,15.5-34.63,34.62-34.63v11.77c-12.64,0-22.88,10.24-22.88,22.86"/>
  <rect class="cls-1" x="225.49" y="222.35" width="11.75" height="53.39"/>
  <path class="cls-2" d="M276.03,218.26c12.64,0,22.89,10.24,22.89,22.86s-10.25,22.86-22.89,22.86-22.88-10.24-22.88-22.86,10.24-22.86,22.88-22.86M310.66,241.11c0-19.12-15.51-34.63-34.63-34.63s-34.62,15.51-34.62,34.63,15.51,34.63,34.62,34.63,34.63-15.51,34.63-34.63"/>
  <path class="cls-2" d="M326.36,241.11v34.63h-11.74v-34.63c0-19.12,15.51-34.63,34.63-34.63v11.77c-12.64,0-22.89,10.24-22.89,22.86"/>
  <rect class="cls-1" x="354.55" y="222.35" width="11.74" height="53.39"/>
  <path class="cls-2" d="M231.36,204.26c4,0,7.25,3.25,7.25,7.24s-3.24,7.24-7.25,7.24-7.24-3.24-7.24-7.24,3.24-7.24,7.24-7.24"/>
  <path class="cls-2" d="M360.42,204.26c4,0,7.24,3.25,7.24,7.24s-3.24,7.24-7.24,7.24-7.24-3.24-7.24-7.24,3.24-7.24,7.24-7.24"/>
</svg>