<?xml version="1.0" encoding="UTF-8"?>
<svg id="Layer_1" data-name="Layer 1" xmlns="http://www.w3.org/2000/svg" viewBox="0 0 480 480">
  <defs>
    <style>
      .cls-1 {
        fill: #d3d3d3;
        stroke-width: 0px;
      }
    </style>
  </defs>
  <path class="cls-1" d="M186.76,129.7v220.6h106.48v-220.6h-106.48ZM220.7,330.65l-1.85-13.21h-9.41l-1.76,13.4h-9.76l12.25-71.59h7.65l10.91,71.4h-8.04ZM260.9,331.04h-22.4v-71.59h9.19v62.78h13.21v8.81ZM254.87,240c.31-.95.45-1.98.37-2.97-.17-2.12-1.67-3.94-2.54-5.82-.87-1.89-1.63-3.88-1.91-5.93-.31-2.13.05-4.31,0-6.46-.05-2.53-1.98-4.76-3.33-6.78-.78-1.18-1.58-2.36-2.44-3.48-.83-1.07-1.87-1.96-2.14-3.35-1,.42-1.89.35-2.9.54-.87.15-1.26,1.27-1.62,1.96-.95,1.8-1.95,3.58-2.97,5.35-1.07,1.87-2.31,3.66-3.22,5.61-1.41,2.99-2.59,6.1-4.53,8.82-1.67,2.32-4.15,4.51-4.7,7.45-.31,1.62-.22,3.27-.01,4.9.01.04.01.09.03.14h-8.17c.37-.55.78-1.08,1.22-1.58,1.32-1.51,2.88-2.36,3.15-4.48.14-1.17.6-2.25.74-3.43.21-1.85.41-3.7.92-5.48,1.07-3.63,3.86-6.02,5.67-9.21,1.22-2.13,1.17-5.08,1.54-7.45.19-1.17.62-2.38.73-3.54.03-.36.17-.99-.23-1.13-.58-.19-1.1-.64-.53-1.21,1.32-1.32,1.68-3.49,1.81-5.26.17-2.27.78-4.65,1.81-6.7.45-.9,1.91-2.27,2.02-3.25.17-1.53.26-3.24-.31-4.67-.64-1.62-1.6-3.08-2.23-4.71-.69-1.81-1.16-3.75-1.54-5.65-.13-.68-.24-.65-.83-1.09-1.62-1.22-3.11-2.66-4.35-4.26-1.59-2.08-2.62-4.1-2.77-6.69-.19-3.24-.09-6.39.78-9.54-.03,0-.42-.5-.45-.63-.14-.95.3-1.53-.24-2.47-.81-1.4-1.59-2.8-1.94-4.4-.76-3.54,3.83-6.97,7.05-5.38.72.36,1.28.89,1.44,1.69.04.27-.14.99-.05,1.18.1.21.9.51,1.09.68.69.59,1.31,1.53,1.1,2.49-.41,1.84-3.02,1.82-3.66,3.43-.42,1.04.53,2.22-.17,3.38-.42.72-.81,1.31-.95,2.16-.37,2.14.92,3.98,1.16,6.06.12,1.08-.19,1.21.58,1.96,1.12,1.1,2.4,3.81,4.02,4.13,1.03.19,1.96.19,2.84.94.85.73.96,1.62,2.08,1.63.54.01,1.21.06,1.69-.17.4-.19.26-1.37.27-1.73.04-1.58-.86-2.93-1.05-4.49-.26-2.03.41-4.4,2.11-5.69,1.54-1.16,3.54-.72,5.15.05,1.72.83,1.41,2.18,1.82,3.84.22.89-.21,1.94-.28,2.82-.09,1.12.12,2.31-.47,3.33-.65,1.12-.98,1.1-1.1,2.35-.04.36-.24.74.17.81.96.14,1.45-.17,2.23-.65,1.45-.91,3.94-1.04,5.61-1.35.95-.18,2.05-1.67,2.85-2.23.41-.28,1.72-.73,1.95-1.09.22-.36.46-.69.72-1.01,1.21-1.58,2.68-2.85,4.08-4.25,0,0,.14-.14.14-.17-.03,0-.21.17-.23.18-.12.09-.65-.74-.69-.85-.12-.42.9-1.12,1.13-1.45.46-.67.62-1.21.14-1.86-.8-1.1-1.86-2.54-.76-3.83,1.23-1.44,1.81-3.26,3.97-3.59,1.71-.26,3.66.41,4.65,1.86,1.36,2,.24,3.99-1.05,5.66-.76.96-1.55,1.96-2.48,2.79-.58.5-.92,1.93-1.25,2.62-2.5,5.3-6.36,10.36-11.98,12.56-.64.24-4.35.98-4.39,1.91-.05,1.34-.14,2.67-.26,4.01-.33,3.44-1.69,7.19-.82,10.64.4,1.6.74,3.22,1.31,4.79.55,1.57,1.46,2.99,2.11,4.53.95,2.23,1.71,4.51,2.31,6.86.72,2.79,1.45,5.58,1.99,8.42.24,1.28.28,2.59.64,3.86.5,1.72.33,3.54.63,5.32.62,3.67.91,7.2,1.23,10.9.1,1.18.15,2.39,1.12,3.21,1.67,1.43,4.03,1.94,6.1,2.49.56.15,2.02.39,2.3,1.09h-13.01ZM278.12,331.04h-9.18v-71.59h9.18v71.59ZM283.4,259.89h-.83v2.13h-.51v-2.13h-.83v-.42h2.18v.42ZM286.6,262.02h-.48v-2.07l-.71,2.07h-.41l-.72-2.07v2.07h-.46v-2.55h.73l.65,1.82.65-1.82h.73v2.55Z"/>
  <polygon class="cls-1" points="210.66 308.07 217.54 308.07 214 282.61 210.66 308.07"/>
</svg>